<svg version="1.1" id="Layer_1" xmlns="http://www.w3.org/2000/svg" xmlns:xlink="http://www.w3.org/1999/xlink" x="0px" y="0px"
	 width="100%" viewBox="0 0 738 338" enable-background="new 0 0 738 338" xml:space="preserve">
<path fill="rgba(255, 255, 255, 0)" opacity="1.000000" stroke="none" 
	d="
M459.000000,339.000000 
	C306.035400,339.000000 153.570816,339.000000 1.053107,339.000000 
	C1.053107,226.394913 1.053107,113.789803 1.053107,1.092342 
	C246.881302,1.092342 492.762634,1.092342 738.822021,1.092342 
	C738.822021,113.666443 738.822021,226.333191 738.822021,339.000000 
	C645.789734,339.000000 552.644897,339.000000 459.000000,339.000000 
M22.018410,196.377869 
	C38.739590,277.654236 116.521217,326.965942 196.746307,307.151245 
	C264.656128,290.378235 309.978699,223.866455 302.194000,152.404495 
	C293.146545,69.351097 214.340591,11.940339 132.534668,28.806372 
	C56.674446,44.446571 7.854719,118.015549 22.018410,196.377869 
M379.886993,197.309082 
	C371.261780,197.309082 362.636536,197.309082 352.904663,197.309082 
	C354.221252,203.147354 354.762787,208.515472 356.645294,213.362808 
	C363.384857,230.716873 377.496826,238.524216 394.902283,241.579498 
	C433.296722,248.319031 464.765594,217.000336 457.040222,179.793213 
	C450.129395,146.509064 418.651886,133.063431 390.279480,151.253006 
	C389.507172,151.748154 388.515961,151.901779 386.824341,152.497009 
	C388.737854,141.881714 390.536438,131.904068 392.406525,121.529854 
	C411.800964,121.529854 430.883026,121.529854 450.006714,121.529854 
	C450.006714,113.470314 450.006714,105.877350 450.006714,98.123093 
	C423.843018,98.123093 397.938690,98.123093 371.733398,98.123093 
	C367.107697,124.119743 362.514038,149.936340 357.839722,176.206177 
	C363.758575,176.206177 369.235199,176.041824 374.697296,176.252579 
	C380.122467,176.461899 385.299469,176.587540 388.345978,170.818588 
	C388.832489,169.897339 390.134125,169.366959 391.120697,168.755539 
	C399.555939,163.527695 411.546997,163.585739 418.994324,169.265015 
	C428.769318,176.719330 430.808716,187.060989 428.513977,198.398987 
	C426.040192,210.621597 416.824554,218.252991 405.172791,218.504410 
	C393.922668,218.747162 386.145386,212.286316 382.583923,199.866074 
	C382.312561,198.919739 381.383331,198.162064 379.886993,197.309082 
M622.356506,241.299927 
	C633.732056,243.106903 644.935303,242.753204 655.725891,238.302185 
	C669.776367,232.506454 677.541016,221.440399 682.164795,207.034500 
	C674.285889,207.034500 667.127075,206.920120 659.978577,207.140167 
	C658.694641,207.179688 657.028809,208.306808 656.258484,209.426544 
	C649.573120,219.144730 636.724976,223.070938 624.148499,219.052002 
	C615.037170,216.140381 609.392029,206.695023 609.676758,194.324310 
	C634.391479,194.324310 659.123535,194.324310 685.052307,194.324310 
	C683.979431,185.993423 683.718994,178.117188 681.876648,170.630234 
	C671.207581,127.273323 625.021057,124.111473 601.194519,142.696182 
	C585.415894,155.003494 580.110840,171.824432 580.777588,191.278214 
	C581.607605,215.496231 596.518738,236.675018 622.356506,241.299927 
M580.112854,147.491119 
	C580.112854,142.709518 580.112854,137.927917 580.112854,132.513062 
	C561.968872,130.844025 549.267456,138.118073 539.964844,154.685883 
	C539.964844,147.052841 539.964844,141.025040 539.964844,135.196808 
	C530.722046,135.196808 521.992188,135.196808 513.262695,135.196808 
	C513.262695,170.087402 513.262695,204.626160 513.262695,239.188782 
	C522.892029,239.188782 532.247131,239.188782 541.759521,239.188782 
	C541.759521,234.945297 541.741394,231.121902 541.762878,227.298737 
	C541.837646,213.984573 541.486755,200.649734 542.113770,187.361267 
	C543.027222,168.001648 554.062378,157.858856 571.940735,159.061386 
	C574.526550,159.235306 577.104370,159.527283 580.112854,159.803909 
	C580.112854,155.746338 580.112854,152.113617 580.112854,147.491119 
M467.793121,233.383667 
	C467.793121,235.325012 467.793121,237.266342 467.793121,239.255081 
	C477.571045,239.255081 486.787567,239.255081 495.973694,239.255081 
	C495.973694,204.338821 495.973694,169.767181 495.973694,135.180389 
	C486.465515,135.180389 477.247314,135.180389 467.793152,135.180389 
	C467.793152,167.805908 467.793152,200.106750 467.793121,233.383667 
M496.273712,105.512787 
	C496.273712,102.221458 496.273712,98.930130 496.273712,95.385254 
	C486.650177,95.385254 477.438568,95.385254 468.003601,95.385254 
	C468.003601,103.217987 468.003601,110.789452 468.003601,118.601257 
	C477.414917,118.601257 486.634949,118.601257 496.273743,118.601257 
	C496.273743,114.415169 496.273743,110.460426 496.273712,105.512787 
z"/>
<path fill="#FEFEFE" opacity="1.000000" stroke="none" 
	d="
M21.958982,195.953003 
	C7.854719,118.015549 56.674446,44.446571 132.534668,28.806372 
	C214.340591,11.940339 293.146545,69.351097 302.194000,152.404495 
	C309.978699,223.866455 264.656128,290.378235 196.746307,307.151245 
	C116.521217,326.965942 38.739590,277.654236 21.958982,195.953003 
M164.118256,209.918823 
	C152.879639,209.918823 141.641037,209.918823 130.290665,209.918823 
	C130.290665,213.680984 130.290665,216.907578 130.290665,220.316238 
	C151.803787,220.316238 173.053024,220.334244 194.302017,220.270493 
	C195.547638,220.266769 196.791290,219.602936 198.543076,220.105988 
	C213.183029,220.176254 227.823135,220.313004 242.462814,220.275803 
	C246.791107,220.264801 248.510178,218.066559 246.665085,214.729401 
	C240.165390,202.973587 233.380249,191.375610 226.560608,179.468460 
	C221.434402,182.431366 216.789368,185.343002 211.944122,187.870911 
	C200.809952,193.679947 187.096985,185.982910 187.721100,173.566254 
	C188.239502,163.253159 190.773743,153.041397 192.663589,141.231216 
	C199.725784,153.465088 205.988388,164.313828 212.398865,175.418747 
	C215.518616,173.610504 218.321518,171.985916 221.286652,170.267288 
	C210.257126,150.999405 199.535049,132.251633 188.768280,113.529541 
	C188.388168,112.868568 187.564743,112.462547 186.969559,112.025093 
	C186.969559,112.025093 187.051331,112.062775 186.857346,111.338470 
	C179.347794,97.884605 171.984238,84.345703 164.230911,71.033813 
	C162.169037,67.493713 159.475113,68.894417 157.719513,71.937477 
	C151.163956,83.300491 144.646332,94.685394 137.917786,106.404625 
	C142.785706,109.303032 147.513504,112.001884 152.121979,114.891083 
	C157.998413,118.575218 160.856216,123.994026 160.119415,130.903305 
	C159.385208,137.787994 155.522675,142.529419 149.028320,144.990875 
	C142.190781,147.582382 135.319595,150.085205 128.459412,152.616730 
	C126.725082,153.256714 124.976631,153.858490 122.052238,154.898209 
	C128.937607,142.855759 135.097809,132.081650 141.496597,120.890236 
	C138.449890,119.104790 135.657730,117.468529 132.612793,115.684120 
	C130.980545,118.493340 129.564850,120.920258 128.158173,123.352371 
	C118.589745,139.895874 109.023216,156.440460 99.177589,173.331192 
	C99.114334,173.761612 99.051079,174.192047 98.608658,175.229324 
	C91.194321,188.058731 83.730713,200.860062 76.392853,213.733047 
	C73.882523,218.136993 75.148651,220.193115 80.398720,220.279755 
	C88.062523,220.406250 95.729927,220.315475 103.395790,220.316528 
	C108.657387,220.317261 113.918983,220.316681 119.716515,220.316681 
	C119.716515,213.691589 119.225235,207.668320 119.818283,201.753769 
	C121.071793,189.252289 135.314041,182.740646 145.364761,190.231232 
	C153.065720,195.970596 160.076187,202.636414 166.749176,208.927765 
	C166.177628,209.181473 165.606094,209.435196 164.118256,209.918823 
z"/>
<path fill="#FBFBFB" opacity="1.000000" stroke="none" 
	d="
M380.323456,197.312897 
	C381.383331,198.162064 382.312561,198.919739 382.583923,199.866074 
	C386.145386,212.286316 393.922668,218.747162 405.172791,218.504410 
	C416.824554,218.252991 426.040192,210.621597 428.513977,198.398987 
	C430.808716,187.060989 428.769318,176.719330 418.994324,169.265015 
	C411.546997,163.585739 399.555939,163.527695 391.120697,168.755539 
	C390.134125,169.366959 388.832489,169.897339 388.345978,170.818588 
	C385.299469,176.587540 380.122467,176.461899 374.697296,176.252579 
	C369.235199,176.041824 363.758575,176.206177 357.839722,176.206177 
	C362.514038,149.936340 367.107697,124.119743 371.733398,98.123093 
	C397.938690,98.123093 423.843018,98.123093 450.006714,98.123093 
	C450.006714,105.877350 450.006714,113.470314 450.006714,121.529854 
	C430.883026,121.529854 411.800964,121.529854 392.406525,121.529854 
	C390.536438,131.904068 388.737854,141.881714 386.824341,152.497009 
	C388.515961,151.901779 389.507172,151.748154 390.279480,151.253006 
	C418.651886,133.063431 450.129395,146.509064 457.040222,179.793213 
	C464.765594,217.000336 433.296722,248.319031 394.902283,241.579498 
	C377.496826,238.524216 363.384857,230.716873 356.645294,213.362808 
	C354.762787,208.515472 354.221252,203.147354 352.904663,197.309082 
	C362.636536,197.309082 371.261780,197.309082 380.323456,197.312897 
z"/>
<path fill="#FCFCFC" opacity="1.000000" stroke="none" 
	d="
M621.930908,241.222382 
	C596.518738,236.675018 581.607605,215.496231 580.777588,191.278214 
	C580.110840,171.824432 585.415894,155.003494 601.194519,142.696182 
	C625.021057,124.111473 671.207581,127.273323 681.876648,170.630234 
	C683.718994,178.117188 683.979431,185.993423 685.052307,194.324310 
	C659.123535,194.324310 634.391479,194.324310 609.676758,194.324310 
	C609.392029,206.695023 615.037170,216.140381 624.148499,219.052002 
	C636.724976,223.070938 649.573120,219.144730 656.258484,209.426544 
	C657.028809,208.306808 658.694641,207.179688 659.978577,207.140167 
	C667.127075,206.920120 674.285889,207.034500 682.164795,207.034500 
	C677.541016,221.440399 669.776367,232.506454 655.725891,238.302185 
	C644.935303,242.753204 633.732056,243.106903 621.930908,241.222382 
M623.509216,175.946945 
	C633.989075,175.946945 644.468933,175.946945 654.971436,175.946945 
	C653.809875,161.755188 645.693481,153.860153 632.619202,153.914062 
	C619.323303,153.968903 610.369141,162.393326 609.554993,175.946945 
	C613.884827,175.946945 618.200012,175.946945 623.509216,175.946945 
z"/>
<path fill="#FAFAFB" opacity="1.000000" stroke="none" 
	d="
M580.112854,147.986008 
	C580.112854,152.113617 580.112854,155.746338 580.112854,159.803909 
	C577.104370,159.527283 574.526550,159.235306 571.940735,159.061386 
	C554.062378,157.858856 543.027222,168.001648 542.113770,187.361267 
	C541.486755,200.649734 541.837646,213.984573 541.762878,227.298737 
	C541.741394,231.121902 541.759521,234.945297 541.759521,239.188782 
	C532.247131,239.188782 522.892029,239.188782 513.262695,239.188782 
	C513.262695,204.626160 513.262695,170.087402 513.262695,135.196808 
	C521.992188,135.196808 530.722046,135.196808 539.964844,135.196808 
	C539.964844,141.025040 539.964844,147.052841 539.964844,154.685883 
	C549.267456,138.118073 561.968872,130.844025 580.112854,132.513062 
	C580.112854,137.927917 580.112854,142.709518 580.112854,147.986008 
z"/>
<path fill="#FEFEFE" opacity="1.000000" stroke="none" 
	d="
M467.793152,232.895630 
	C467.793152,200.106750 467.793152,167.805908 467.793152,135.180389 
	C477.247314,135.180389 486.465515,135.180389 495.973694,135.180389 
	C495.973694,169.767181 495.973694,204.338821 495.973694,239.255081 
	C486.787567,239.255081 477.571045,239.255081 467.793121,239.255081 
	C467.793121,237.266342 467.793121,235.325012 467.793152,232.895630 
z"/>
<path fill="#F9F9F9" opacity="1.000000" stroke="none" 
	d="
M496.273743,106.009232 
	C496.273743,110.460426 496.273743,114.415169 496.273743,118.601257 
	C486.634949,118.601257 477.414917,118.601257 468.003601,118.601257 
	C468.003601,110.789452 468.003601,103.217987 468.003601,95.385254 
	C477.438568,95.385254 486.650177,95.385254 496.273712,95.385254 
	C496.273712,98.930130 496.273712,102.221458 496.273743,106.009232 
z"/>
<path fill="#F5F5F6" opacity="1.000000" stroke="none" 
	d="
M98.987823,174.622467 
	C99.051079,174.192047 99.114334,173.761612 99.426758,173.547409 
	C100.318382,173.733459 101.020119,173.863068 101.594696,173.649872 
	C118.882401,167.235977 136.216827,160.941437 153.412613,154.288742 
	C163.843140,150.253403 169.640808,142.102493 170.501816,131.124222 
	C171.331711,120.542343 166.797333,112.099495 157.861694,106.188400 
	C155.981461,104.944580 154.028748,103.810287 151.973953,102.541908 
	C155.169510,97.042931 158.114929,91.974388 161.328522,86.444359 
	C167.279205,96.767235 172.815033,106.370438 178.249741,115.798256 
	C181.462784,114.434608 184.257065,113.248695 187.051331,112.062775 
	C187.051331,112.062775 186.969559,112.025093 187.064377,112.399818 
	C183.964417,131.647964 180.588104,150.493149 177.645874,169.405853 
	C175.994629,180.019989 179.878830,188.832214 188.559357,195.119110 
	C197.292160,201.443893 206.760574,201.812317 216.435776,197.221207 
	C218.506088,196.238815 220.459442,195.009964 222.855164,193.678772 
	C225.889938,198.965332 228.806061,204.045197 232.209976,209.974792 
	C220.162598,209.974792 209.267654,209.974792 198.068878,209.974792 
	C198.068878,213.388092 198.068878,216.337173 197.698395,219.368835 
	C195.852112,218.401688 194.300461,217.443115 192.912292,216.288101 
	C179.479614,205.111572 166.214981,193.727570 152.610535,182.764984 
	C143.934006,175.773361 134.089249,174.760056 124.072479,179.768112 
	C114.259598,184.674225 109.510574,193.010834 109.166542,203.906677 
	C109.105835,205.829269 109.157921,207.755447 109.157921,209.734497 
	C102.761620,209.734497 97.039970,209.734497 90.573517,209.734497 
	C96.320587,199.642380 101.786705,190.043625 107.307823,180.348297 
	C104.393631,178.342743 101.690727,176.482605 98.987823,174.622467 
z"/>
<path fill="#09090A" opacity="1.000000" stroke="none" 
	d="
M186.954346,111.700623 
	C184.257065,113.248695 181.462784,114.434608 178.249741,115.798256 
	C172.815033,106.370438 167.279205,96.767235 161.328522,86.444359 
	C158.114929,91.974388 155.169510,97.042931 151.973953,102.541908 
	C154.028748,103.810287 155.981461,104.944580 157.861694,106.188400 
	C166.797333,112.099495 171.331711,120.542343 170.501816,131.124222 
	C169.640808,142.102493 163.843140,150.253403 153.412613,154.288742 
	C136.216827,160.941437 118.882401,167.235977 101.594696,173.649872 
	C101.020119,173.863068 100.318382,173.733459 99.565994,173.374161 
	C109.023216,156.440460 118.589745,139.895874 128.158173,123.352371 
	C129.564850,120.920258 130.980545,118.493340 132.612793,115.684120 
	C135.657730,117.468529 138.449890,119.104790 141.496597,120.890236 
	C135.097809,132.081650 128.937607,142.855759 122.052238,154.898209 
	C124.976631,153.858490 126.725082,153.256714 128.459412,152.616730 
	C135.319595,150.085205 142.190781,147.582382 149.028320,144.990875 
	C155.522675,142.529419 159.385208,137.787994 160.119415,130.903305 
	C160.856216,123.994026 157.998413,118.575218 152.121979,114.891083 
	C147.513504,112.001884 142.785706,109.303032 137.917786,106.404625 
	C144.646332,94.685394 151.163956,83.300491 157.719513,71.937477 
	C159.475113,68.894417 162.169037,67.493713 164.230911,71.033813 
	C171.984238,84.345703 179.347794,97.884605 186.954346,111.700623 
z"/>
<path fill="#080809" opacity="1.000000" stroke="none" 
	d="
M198.068878,219.286255 
	C198.068878,216.337173 198.068878,213.388092 198.068878,209.974792 
	C209.267654,209.974792 220.162598,209.974792 232.209976,209.974792 
	C228.806061,204.045197 225.889938,198.965332 222.855164,193.678772 
	C220.459442,195.009964 218.506088,196.238815 216.435776,197.221207 
	C206.760574,201.812317 197.292160,201.443893 188.559357,195.119110 
	C179.878830,188.832214 175.994629,180.019989 177.645874,169.405853 
	C180.588104,150.493149 183.964417,131.647964 187.053558,112.356125 
	C187.564743,112.462547 188.388168,112.868568 188.768280,113.529541 
	C199.535049,132.251633 210.257126,150.999405 221.286652,170.267288 
	C218.321518,171.985916 215.518616,173.610504 212.398865,175.418747 
	C205.988388,164.313828 199.725784,153.465088 192.663589,141.231216 
	C190.773743,153.041397 188.239502,163.253159 187.721100,173.566254 
	C187.096985,185.982910 200.809952,193.679947 211.944122,187.870911 
	C216.789368,185.343002 221.434402,182.431366 226.560608,179.468460 
	C233.380249,191.375610 240.165390,202.973587 246.665085,214.729401 
	C248.510178,218.066559 246.791107,220.264801 242.462814,220.275803 
	C227.823135,220.313004 213.183029,220.176254 198.288055,219.696701 
	C198.033051,219.287415 198.068878,219.286255 198.068878,219.286255 
z"/>
<path fill="#060608" opacity="1.000000" stroke="none" 
	d="
M197.698395,219.368835 
	C198.068878,219.286255 198.033051,219.287415 198.034454,219.266846 
	C196.791290,219.602936 195.547638,220.266769 194.302017,220.270493 
	C173.053024,220.334244 151.803787,220.316238 130.290665,220.316238 
	C130.290665,216.907578 130.290665,213.680984 130.290665,209.918823 
	C141.641037,209.918823 152.879639,209.918823 164.877197,209.929565 
	C166.222031,209.590271 166.807892,209.240219 167.393768,208.890182 
	C160.076187,202.636414 153.065720,195.970596 145.364761,190.231232 
	C135.314041,182.740646 121.071793,189.252289 119.818283,201.753769 
	C119.225235,207.668320 119.716515,213.691589 119.716515,220.316681 
	C113.918983,220.316681 108.657387,220.317261 103.395790,220.316528 
	C95.729927,220.315475 88.062523,220.406250 80.398720,220.279755 
	C75.148651,220.193115 73.882523,218.136993 76.392853,213.733047 
	C83.730713,200.860062 91.194321,188.058731 98.798241,174.925903 
	C101.690727,176.482605 104.393631,178.342743 107.307823,180.348297 
	C101.786705,190.043625 96.320587,199.642380 90.573517,209.734497 
	C97.039970,209.734497 102.761620,209.734497 109.157921,209.734497 
	C109.157921,207.755447 109.105835,205.829269 109.166542,203.906677 
	C109.510574,193.010834 114.259598,184.674225 124.072479,179.768112 
	C134.089249,174.760056 143.934006,175.773361 152.610535,182.764984 
	C166.214981,193.727570 179.479614,205.111572 192.912292,216.288101 
	C194.300461,217.443115 195.852112,218.401688 197.698395,219.368835 
z"/>
<path fill="#F5F5F6" opacity="1.000000" stroke="none" 
	d="
M167.071472,208.908966 
	C166.807892,209.240219 166.222031,209.590271 165.335358,209.814606 
	C165.606094,209.435196 166.177628,209.181473 167.071472,208.908966 
z"/>
<path fill="#060608" opacity="1.000000" stroke="none" 
	d="
M623.012207,175.946945 
	C618.200012,175.946945 613.884827,175.946945 609.554993,175.946945 
	C610.369141,162.393326 619.323303,153.968903 632.619202,153.914062 
	C645.693481,153.860153 653.809875,161.755188 654.971436,175.946945 
	C644.468933,175.946945 633.989075,175.946945 623.012207,175.946945 
z"/>
</svg>