<svg class="wc-logoWt" xmlns="http://www.w3.org/2000/svg" viewBox="0 0 815.7 173.71" width="206px" height="44px"><path fill="white" d="M84.42,101.68a31.49,31.49,0,0,1-4.85,1.07,43.7,43.7,0,0,1-7.44.7c-2.31,0-3.46-.64-3.46-1.89Q67,94.87,60.61,53.8q-17.4,38.69-20.67,47.88A31.44,31.44,0,0,1,35,102.75a44.45,44.45,0,0,1-7.44.7c-2.26,0-3.4-.64-3.4-1.89Q22.3,93.61,18.9,70.94t-7.06-41.2Q8.2,11.22,4.28,5.17q6.93-3.28,11.41-3.28t6.49,1.64q2,1.64,3.71,7.12A102.42,102.42,0,0,1,29,25.89q1.38,9.77,2.46,18.4T32.51,53t.12,1.2c.09.72.74,5.29,2,13.74s2,13.88,2.33,16.31q9.7-20.79,20-51.4Q52.91,12,48.76,5.17q6.93-3.28,11.41-3.28t6.48,1.64q2,1.64,3.72,7.12a103.73,103.73,0,0,1,3.09,15.24q1.38,9.77,2.46,18.4T77,53t.12,1.2c.08.72.74,5.29,2,13.74s2,13.88,2.34,16.31q8.8-22.92,17.89-49.51T108.86,0q13.62,2.78,13.61,8.82Q122.47,17,96.52,74,86.43,96.27,84.42,101.68Z" transform="translate(-4.28 0)"></path><path fill="white" d="M158.63,27.22a4.53,4.53,0,0,1,2.59.81,2.24,2.24,0,0,1,1.19,1.71q-12.72,8.82-15.24,24.57a49.09,49.09,0,0,1,6.49-12.23,31,31,0,0,1,8-7.81q7.93-4.91,15.49-4.91T190,36.79q5.28,7.44,5.29,19.91a58.22,58.22,0,0,1-5.67,25.7q-6.3,13.23-17.89,18.27a35.18,35.18,0,0,1-14.37,2.9q-11,0-19.09-8.5t-8.12-24.45q0-15.93,7.81-28.1T158.63,27.22Zm10.71,11.34q-8.19,0-14.61,11t-6.43,22q0,22.94,11.84,22.93,8.45,0,13.74-11a56.41,56.41,0,0,0,5.29-24.75Q179.17,38.56,169.34,38.56Z" transform="translate(-4.28 0)"></path><path fill="white" d="M236.37,27.22A4.53,4.53,0,0,1,239,28a2.24,2.24,0,0,1,1.19,1.71q-12.72,8.82-15.24,24.57a49.09,49.09,0,0,1,6.49-12.23,31,31,0,0,1,8-7.81q7.93-4.91,15.49-4.91t12.86,7.43Q273,44.23,273,56.7a58.22,58.22,0,0,1-5.67,25.7q-6.3,13.23-17.89,18.27a35.18,35.18,0,0,1-14.37,2.9q-11,0-19.09-8.5T207.9,70.62q0-15.93,7.81-28.1T236.37,27.22Zm10.71,11.34q-8.19,0-14.61,11t-6.43,22q0,22.94,11.84,22.93,8.44,0,13.74-11a56.41,56.41,0,0,0,5.29-24.75Q256.91,38.56,247.08,38.56Z" transform="translate(-4.28 0)"></path><path fill="white" d="M352.92,75.85c3.11.67,4.66,2.23,4.66,4.66a45.57,45.57,0,0,1-11.71,14.12,39.58,39.58,0,0,1-13.11,7.18A46.34,46.34,0,0,1,320,103.57a32,32,0,0,1-25-11.34Q285,80.89,285,59.22,285,35,297.48,18A44.56,44.56,0,0,1,313.29,5,48.92,48.92,0,0,1,335.6.13q12.66,0,19.27,6.74a21.91,21.91,0,0,1,6.62,15.87q0,9.14-5,14.87a16.63,16.63,0,0,1-13.1,5.73,24.24,24.24,0,0,1-6.43-1A30,30,0,0,0,341.58,33a36.39,36.39,0,0,0,2-11.47,14.4,14.4,0,0,0-2.52-8.81q-2.52-3.4-7.94-3.41-8.31,0-15,7.69a49.33,49.33,0,0,0-10,18.9,82.39,82.39,0,0,0-3.27,23.18q0,16.14,6.3,24.45t16.12,8.31q6.18,0,12.86-4.15A50.45,50.45,0,0,0,352.92,75.85Z" transform="translate(-4.28 0)"></path><path fill="white" d="M400.67,27.22a4.53,4.53,0,0,1,2.59.81,2.23,2.23,0,0,1,1.2,1.71q-12.73,8.82-15.25,24.57a49.09,49.09,0,0,1,6.49-12.23,31.16,31.16,0,0,1,8-7.81q7.94-4.91,15.5-4.91t12.85,7.43q5.29,7.44,5.29,19.91a58.22,58.22,0,0,1-5.67,25.7q-6.3,13.23-17.89,18.27a35.16,35.16,0,0,1-14.36,2.9q-11,0-19.09-8.5T372.2,70.62q0-15.93,7.81-28.1T400.67,27.22Zm10.71,11.34q-8.19,0-14.61,11t-6.43,22q0,22.94,11.85,22.93,8.43,0,13.73-11a56.41,56.41,0,0,0,5.29-24.75Q421.21,38.56,411.38,38.56Z" transform="translate(-4.28 0)"></path><path fill="white" d="M493.16,29c2.52-.17,4.28-.25,5.29-.25q6.56,0,9.95,2.39t3.41,8.82q0,2-2.4,17.7A183.16,183.16,0,0,0,507,84.54a74,74,0,0,0,2.39,19.79q-9.45-3-13.1-8.57T492.65,82q0-3.15,1.39-14.24-3.92,14.35-11.91,24.13t-15.05,9.76q-14.49,0-14.49-20.91a124.89,124.89,0,0,1,2.08-19.35,124.62,124.62,0,0,0,2.07-18.83,49.57,49.57,0,0,0-1.76-13q10.45,0,15.18,2.71t4.73,10.77q0,4.29-2.65,17T469.6,79.25q0,9.33,5,9.33,2.52,0,5.79-3.47a41.09,41.09,0,0,0,6.3-9.2,61.82,61.82,0,0,0,5.1-14.36A74.27,74.27,0,0,0,493.91,44,127.69,127.69,0,0,0,493.16,29Z" transform="translate(-4.28 0)"></path><path fill="white" d="M548.34,54.94q5.29-10.84,13.3-16.89t15.81-6a16,16,0,0,1,12.92,6.24q5.1,6.24,5.1,18.08,0,18.9-10.33,32.13t-24.83,13.23a29.25,29.25,0,0,1-10.45-2q12.35-2.91,19.65-16t7.31-26.08a19.47,19.47,0,0,0-2.2-9.83A6.89,6.89,0,0,0,568.38,44q-7.7,0-13.61,9.33T545.7,78.81a176.55,176.55,0,0,0-3.15,33.77,162.29,162.29,0,0,0,2.52,30.56q-10.34-.39-15.31-3.34t-5-11.28q0-3,3.85-31.94T532.47,52a154.86,154.86,0,0,0-1.89-26.34Q540.66,28.22,544.5,35T548.34,54.94Z" transform="translate(-4.28 0)"></path><path fill="white" d="M636.54,27.22a4.53,4.53,0,0,1,2.59.81,2.24,2.24,0,0,1,1.19,1.71q-12.72,8.82-15.24,24.57a49.09,49.09,0,0,1,6.49-12.23,31,31,0,0,1,8-7.81q7.93-4.91,15.49-4.91t12.86,7.43q5.28,7.44,5.29,19.91a58.22,58.22,0,0,1-5.67,25.7q-6.3,13.23-17.89,18.27a35.18,35.18,0,0,1-14.37,2.9q-11,0-19.09-8.5t-8.12-24.45q0-15.93,7.81-28.1T636.54,27.22Zm10.71,11.34q-8.19,0-14.61,11t-6.43,22q0,22.94,11.84,22.93,8.44,0,13.74-11a56.41,56.41,0,0,0,5.29-24.75Q657.08,38.56,647.25,38.56Z" transform="translate(-4.28 0)"></path><path fill="white" d="M736,29q7.42,0,10.64,4.6t3.21,12.47q0,7.88-2.45,22.12T744.9,88.89q0,6.49,1.64,9.45a13.46,13.46,0,0,0,5.54,5.11c-1.09.08-2.64.12-4.66.12q-10.57,0-15.06-3.28t-4.47-11.46q0-4.67,2.52-18.21t2.52-20.22q0-8.32-5-8.32c-1.93,0-4.12,1.14-6.55,3.41a39.77,39.77,0,0,0-7.06,9.26,57.8,57.8,0,0,0-5.67,15,76.55,76.55,0,0,0-2.27,18.34,88.16,88.16,0,0,0,.76,13.54c-2.69.17-4.45.25-5.29.25q-7.18,0-10.33-2.52t-3.15-8.31q0-2.52,2.64-19.41t2.65-26.9a75.36,75.36,0,0,0-2.14-18.46q9.19,2.91,12.85,8.26A21.2,21.2,0,0,1,708,46.81a98.22,98.22,0,0,1-1.51,15.94,60.15,60.15,0,0,1,13.11-23.94Q728.52,29,736,29Z" transform="translate(-4.28 0)"></path><path fill="white" d="M794.17,36.41a9.51,9.51,0,0,0-6.3,2.33,8.18,8.18,0,0,0-2.78,6.62,12.85,12.85,0,0,0,3,8.06A30.54,30.54,0,0,0,795.3,60q4.28,2.84,8.63,5.79a32.19,32.19,0,0,1,7.62,7.31,17.78,17.78,0,0,1,3.66,9.64q0,9.07-7.81,15.25T788,104.2q-11.6,0-18.2-4.66t-6.62-10.71a13.22,13.22,0,0,1,3.72-9.77,12.57,12.57,0,0,1,9.26-3.71,14.54,14.54,0,0,1,5.42,1q-4,4.29-4,9.08a11,11,0,0,0,2.65,7.68,9.21,9.21,0,0,0,7.18,2.9A12.21,12.21,0,0,0,795,93.68a7.24,7.24,0,0,0,3.09-6.05A10.82,10.82,0,0,0,795.93,81a22.31,22.31,0,0,0-5.35-5.11q-3.23-2.19-7-5t-7-5.61a23,23,0,0,1-5.36-7.18,21.2,21.2,0,0,1-2.14-9.51A17.8,17.8,0,0,1,776.46,34q7.38-5.75,18.4-5.74T811,32.51q5.1,4.27,5.1,10a14.19,14.19,0,0,1-3.59,9.77,11.83,11.83,0,0,1-9.26,4,21,21,0,0,1-6.3-1.13,17.37,17.37,0,0,0,4.28-5.48,13.8,13.8,0,0,0,1.51-6.11,6.39,6.39,0,0,0-2.52-5.11A9.21,9.21,0,0,0,794.17,36.41Z" transform="translate(-4.28 0)"></path><path fill="white" d="M296.89,149.87V138.52L288.15,125a25.29,25.29,0,0,1-1.62-2.86,4.29,4.29,0,0,1-.48-1.78,2.87,2.87,0,0,1,1-2.15,3.37,3.37,0,0,1,2.38-.9,2.9,2.9,0,0,1,2.26.84,24.63,24.63,0,0,1,2.31,3.36l6.69,10.86,6.76-10.86,1-1.69a10.57,10.57,0,0,1,.91-1.28,3.74,3.74,0,0,1,1.11-.91,3.25,3.25,0,0,1,1.49-.32,3.18,3.18,0,0,1,2.29.89,2.8,2.8,0,0,1,.91,2.06,4.32,4.32,0,0,1-.46,1.91,25,25,0,0,1-1.59,2.63l-9,13.75v11.35a4.73,4.73,0,0,1-1,3.32,3.41,3.41,0,0,1-2.62,1.1,3.38,3.38,0,0,1-2.61-1.09A4.75,4.75,0,0,1,296.89,149.87Z" transform="translate(-4.28 0)"></path><path fill="white" d="M341.49,140.74a15.89,15.89,0,0,1-.92,5.49,12.24,12.24,0,0,1-2.69,4.33,12,12,0,0,1-4.2,2.77,14.92,14.92,0,0,1-5.49,1,14.3,14.3,0,0,1-5.45-1,12,12,0,0,1-6.87-7.09,15.71,15.71,0,0,1-.91-5.48,16.1,16.1,0,0,1,.92-5.54,12.16,12.16,0,0,1,2.66-4.3,11.86,11.86,0,0,1,4.2-2.74,15.83,15.83,0,0,1,10.94,0,11.76,11.76,0,0,1,6.9,7.08A15.81,15.81,0,0,1,341.49,140.74Zm-6.69,0a10,10,0,0,0-1.79-6.35,5.84,5.84,0,0,0-4.82-2.27,5.93,5.93,0,0,0-3.44,1,6.36,6.36,0,0,0-2.3,3,13.65,13.65,0,0,0,0,9.18,6.52,6.52,0,0,0,2.27,3,5.89,5.89,0,0,0,3.48,1,5.83,5.83,0,0,0,4.82-2.29A9.93,9.93,0,0,0,334.8,140.74Z" transform="translate(-4.28 0)"></path><path fill="white" d="M364.05,150.53v-.85a15.12,15.12,0,0,1-2.51,2.54,9.27,9.27,0,0,1-2.88,1.52,11.49,11.49,0,0,1-3.57.5,9.18,9.18,0,0,1-4.33-1,7.34,7.34,0,0,1-3-2.76,12.19,12.19,0,0,1-1.24-6.1V131.17a4.33,4.33,0,0,1,.9-3,3.08,3.08,0,0,1,2.39-1,3.22,3.22,0,0,1,2.45,1,4.29,4.29,0,0,1,.92,3v10.67a16.38,16.38,0,0,0,.39,3.89A4.65,4.65,0,0,0,355,148.2a4,4,0,0,0,2.74.89,5.59,5.59,0,0,0,3.18-1,5.91,5.91,0,0,0,2.17-2.61,21.2,21.2,0,0,0,.56-6.2v-8.11a4.24,4.24,0,0,1,.93-3,3.17,3.17,0,0,1,2.42-1,3.08,3.08,0,0,1,2.39,1,4.33,4.33,0,0,1,.9,3v19.31a4.18,4.18,0,0,1-.86,2.86,3.09,3.09,0,0,1-4.5,0A4,4,0,0,1,364.05,150.53Z" transform="translate(-4.28 0)"></path><path fill="white" d="M417.1,142.94a10.46,10.46,0,0,1-1.67,5.83,11.06,11.06,0,0,1-4.89,4.06,18.46,18.46,0,0,1-7.64,1.46,17.21,17.21,0,0,1-8.74-2,11.61,11.61,0,0,1-4-3.85,8.7,8.7,0,0,1-1.53-4.67,3.13,3.13,0,0,1,.92-2.26,3.09,3.09,0,0,1,2.33-.94,2.75,2.75,0,0,1,1.94.73,5.87,5.87,0,0,1,1.36,2.18,14,14,0,0,0,1.47,2.85,5.91,5.91,0,0,0,2.24,1.89,8.19,8.19,0,0,0,3.78.75,8.57,8.57,0,0,0,5.24-1.5,4.52,4.52,0,0,0,2-3.75,3.93,3.93,0,0,0-1.09-2.89,7,7,0,0,0-2.8-1.7,46.14,46.14,0,0,0-4.6-1.24,33.72,33.72,0,0,1-6.46-2.12,10.37,10.37,0,0,1-4.13-3.29,8.53,8.53,0,0,1-1.52-5.19A8.87,8.87,0,0,1,391,122a10.14,10.14,0,0,1,4.66-3.53,19.13,19.13,0,0,1,7.18-1.23,17.59,17.59,0,0,1,5.7.82,12.05,12.05,0,0,1,4,2.17,9.06,9.06,0,0,1,2.32,2.84,6.59,6.59,0,0,1,.73,2.91,3.43,3.43,0,0,1-.91,2.33,2.94,2.94,0,0,1-2.29,1,2.64,2.64,0,0,1-1.89-.62,8.5,8.5,0,0,1-1.4-2,9.07,9.07,0,0,0-2.35-3.16,6.81,6.81,0,0,0-4.39-1.14,7.64,7.64,0,0,0-4.53,1.23,3.6,3.6,0,0,0-1.72,3,3,3,0,0,0,.59,1.86,4.93,4.93,0,0,0,1.61,1.34,10.9,10.9,0,0,0,2.07.88c.7.21,1.86.52,3.47.93a54,54,0,0,1,5.48,1.56,16.8,16.8,0,0,1,4.18,2.07,8.66,8.66,0,0,1,2.68,3.09A9.94,9.94,0,0,1,417.1,142.94Z" transform="translate(-4.28 0)"></path><path fill="white" d="M429.31,121.33v9.89a14.11,14.11,0,0,1,2.48-2.32,8.9,8.9,0,0,1,2.67-1.28,11.05,11.05,0,0,1,3.15-.43,9.23,9.23,0,0,1,4.51,1.08,7.61,7.61,0,0,1,3.09,3.12,7.87,7.87,0,0,1,1,2.67,21.6,21.6,0,0,1,.24,3.41v12.77a4.44,4.44,0,0,1-.91,3,3.11,3.11,0,0,1-2.43,1q-3.3,0-3.3-4V139a10.4,10.4,0,0,0-.95-4.92c-.64-1.14-1.84-1.72-3.61-1.72a5.43,5.43,0,0,0-3.22,1,6.06,6.06,0,0,0-2.13,2.77,17.64,17.64,0,0,0-.54,5.3v8.81a4.51,4.51,0,0,1-.89,3,3.06,3.06,0,0,1-2.48,1q-3.29,0-3.29-4V121.33a4.63,4.63,0,0,1,.86-3,3,3,0,0,1,2.43-1,3.09,3.09,0,0,1,2.48,1A4.5,4.5,0,0,1,429.31,121.33Z" transform="translate(-4.28 0)"></path><path fill="white" d="M477.94,140.74a15.89,15.89,0,0,1-.92,5.49,12.24,12.24,0,0,1-2.69,4.33,12,12,0,0,1-4.2,2.77,14.92,14.92,0,0,1-5.49,1,14.3,14.3,0,0,1-5.45-1,12,12,0,0,1-6.87-7.09,17,17,0,0,1,0-11,12,12,0,0,1,2.67-4.3,11.73,11.73,0,0,1,4.19-2.74,15.83,15.83,0,0,1,10.94,0,11.76,11.76,0,0,1,6.9,7.08A15.81,15.81,0,0,1,477.94,140.74Zm-6.69,0a10,10,0,0,0-1.79-6.35,5.84,5.84,0,0,0-4.82-2.27,5.93,5.93,0,0,0-3.44,1,6.36,6.36,0,0,0-2.3,3,13.65,13.65,0,0,0,0,9.18,6.52,6.52,0,0,0,2.27,3,5.89,5.89,0,0,0,3.48,1,5.83,5.83,0,0,0,4.82-2.29A9.93,9.93,0,0,0,471.25,140.74Z" transform="translate(-4.28 0)"></path><path fill="white" d="M489.35,130.93v.8a13.12,13.12,0,0,1,3.9-3.4,9.49,9.49,0,0,1,4.59-1.09,10.65,10.65,0,0,1,5.67,1.59,11,11,0,0,1,4.09,4.64,16.18,16.18,0,0,1,1.5,7.22,17.63,17.63,0,0,1-.87,5.66,12.83,12.83,0,0,1-2.38,4.32,10.32,10.32,0,0,1-3.58,2.68,10.48,10.48,0,0,1-4.43.94,9.27,9.27,0,0,1-4.8-1.15,13.5,13.5,0,0,1-3.69-3.37v10q0,4.4-3.2,4.4a2.55,2.55,0,0,1-2.49-1.14,7.08,7.08,0,0,1-.61-3.3V131a4.18,4.18,0,0,1,.83-2.85,2.89,2.89,0,0,1,2.27-.94,3,3,0,0,1,2.31,1A3.94,3.94,0,0,1,489.35,130.93Zm13.06,9.69a11.46,11.46,0,0,0-.81-4.53,6.63,6.63,0,0,0-2.23-2.9,5.32,5.32,0,0,0-3.16-1,6,6,0,0,0-4.66,2.18c-1.26,1.44-1.89,3.58-1.89,6.39a9.27,9.27,0,0,0,1.88,6.19,5.91,5.91,0,0,0,4.67,2.21,5.36,5.36,0,0,0,3.07-1,6.63,6.63,0,0,0,2.27-2.9A11.44,11.44,0,0,0,502.41,140.62Z" transform="translate(-4.28 0)"></path><path fill="white" d="M590.25,148l-5.79-21.46L578.6,148c-.45,1.63-.81,2.8-1.08,3.5a4.64,4.64,0,0,1-1.41,1.91,4,4,0,0,1-2.66.84,4.43,4.43,0,0,1-2.21-.5,3.82,3.82,0,0,1-1.4-1.42,8.69,8.69,0,0,1-.88-2.17c-.23-.84-.43-1.61-.61-2.33l-6-24.1a13.86,13.86,0,0,1-.53-3.19,3.16,3.16,0,0,1,1-2.35,3.35,3.35,0,0,1,2.42-1,2.74,2.74,0,0,1,2.66,1.27,14.44,14.44,0,0,1,1.2,3.69l4.68,20.89L579,123.58a31,31,0,0,1,1.05-3.42,5,5,0,0,1,1.52-2,4.38,4.38,0,0,1,2.85-.85,4.21,4.21,0,0,1,2.85.89,4.94,4.94,0,0,1,1.4,1.94c.26.7.61,1.86,1,3.47l5.3,19.55,4.69-20.89a24.43,24.43,0,0,1,.64-2.57,4.26,4.26,0,0,1,1.05-1.66,3,3,0,0,1,2.16-.73,3.35,3.35,0,0,1,2.41.94,3.12,3.12,0,0,1,1,2.36,15.19,15.19,0,0,1-.54,3.19l-6,24.1c-.4,1.63-.74,2.82-1,3.58a4.76,4.76,0,0,1-1.37,2,4,4,0,0,1-2.72.85,4.05,4.05,0,0,1-2.66-.83,4.4,4.4,0,0,1-1.39-1.87C591.09,150.9,590.72,149.72,590.25,148Z" transform="translate(-4.28 0)"></path><path fill="white" d="M628.7,142.38h-13a8.93,8.93,0,0,0,.92,4,6.14,6.14,0,0,0,5.63,3.49,7.88,7.88,0,0,0,2.18-.28,7.2,7.2,0,0,0,1.92-.88,14.1,14.1,0,0,0,1.71-1.28c.52-.45,1.19-1.07,2-1.85a2.17,2.17,0,0,1,1.47-.44,2.39,2.39,0,0,1,1.66.56,2,2,0,0,1,.63,1.58,4.35,4.35,0,0,1-.7,2.12,8.64,8.64,0,0,1-2.14,2.32,12.2,12.2,0,0,1-3.59,1.84,15.43,15.43,0,0,1-5,.73q-6.42,0-10-3.66t-3.57-9.94a16.75,16.75,0,0,1,.88-5.48,12.17,12.17,0,0,1,2.56-4.33,11.06,11.06,0,0,1,4.16-2.77,14.7,14.7,0,0,1,5.46-1,13,13,0,0,1,6.71,1.65,10.81,10.81,0,0,1,4.18,4.26,11.18,11.18,0,0,1,1.39,5.32c0,1.68-.48,2.77-1.44,3.26A8.91,8.91,0,0,1,628.7,142.38Zm-13-3.79h12.09a8.1,8.1,0,0,0-1.84-5.11,5.54,5.54,0,0,0-4.22-1.7,5.33,5.33,0,0,0-4.09,1.72A8.64,8.64,0,0,0,615.66,138.59Z" transform="translate(-4.28 0)"></path><path fill="white" d="M657.27,117.89h9.44a25.82,25.82,0,0,1,6.33.68,11.63,11.63,0,0,1,4.78,2.57q5.59,4.78,5.59,14.55a28.09,28.09,0,0,1-.56,5.88,17.29,17.29,0,0,1-1.73,4.8,14.9,14.9,0,0,1-3,3.82,13.13,13.13,0,0,1-3.15,2.08,14.27,14.27,0,0,1-3.68,1.09,27,27,0,0,1-4.43.32h-9.45a5.91,5.91,0,0,1-3-.6,2.79,2.79,0,0,1-1.3-1.68,10.47,10.47,0,0,1-.31-2.82V122.33a3.81,3.81,0,0,1,4.45-4.44Zm2.8,5.74v24.29h5.5c1.2,0,2.14,0,2.83-.1a8.62,8.62,0,0,0,2.12-.49,5.72,5.72,0,0,0,1.91-1.1q3.63-3.07,3.63-10.59,0-5.29-1.6-7.94a7.12,7.12,0,0,0-3.94-3.35,19.43,19.43,0,0,0-5.66-.72Z" transform="translate(-4.28 0)"></path><path fill="white" d="M714.27,140.74a15.66,15.66,0,0,1-.93,5.49,11.77,11.77,0,0,1-6.88,7.1,14.92,14.92,0,0,1-5.49,1,14.27,14.27,0,0,1-5.45-1,12,12,0,0,1-6.87-7.09,16.87,16.87,0,0,1,0-11,12.16,12.16,0,0,1,2.66-4.3,11.86,11.86,0,0,1,4.2-2.74,15.83,15.83,0,0,1,10.94,0,11.83,11.83,0,0,1,6.9,7.08A15.81,15.81,0,0,1,714.27,140.74Zm-6.69,0a10.06,10.06,0,0,0-1.79-6.35,5.85,5.85,0,0,0-4.82-2.27,6,6,0,0,0-3.45,1,6.41,6.41,0,0,0-2.29,3,13.49,13.49,0,0,0,0,9.18,6.52,6.52,0,0,0,2.27,3,6.27,6.27,0,0,0,8.3-1.25A10,10,0,0,0,707.58,140.74Z" transform="translate(-4.28 0)"></path><path fill="white" d="M725.58,130.88v.8a11.65,11.65,0,0,1,3.84-3.4,10.17,10.17,0,0,1,4.8-1.09,9.5,9.5,0,0,1,4.71,1.15,7.27,7.27,0,0,1,3.1,3.25,7.9,7.9,0,0,1,.86,2.63,27.6,27.6,0,0,1,.19,3.62v12.4a4.44,4.44,0,0,1-.91,3,3.3,3.3,0,0,1-4.8,0,4.38,4.38,0,0,1-.93-3V139.13a10.94,10.94,0,0,0-.92-5c-.6-1.16-1.82-1.75-3.64-1.75a5.39,5.39,0,0,0-3.25,1.07,6,6,0,0,0-2.15,2.91,20.73,20.73,0,0,0-.49,5.57v8.35a4.32,4.32,0,0,1-.94,3,3.19,3.19,0,0,1-2.43,1,3,3,0,0,1-2.37-1,4.38,4.38,0,0,1-.92-3V131a4.18,4.18,0,0,1,.83-2.85,2.89,2.89,0,0,1,2.27-.94,3,3,0,0,1,1.58.42,2.93,2.93,0,0,1,1.14,1.24A4.48,4.48,0,0,1,725.58,130.88Z" transform="translate(-4.28 0)"></path><path fill="white" d="M766.57,150.53a20.07,20.07,0,0,1-4.68,2.82,13,13,0,0,1-5.06.94,9.7,9.7,0,0,1-4.51-1,7.45,7.45,0,0,1-3-2.75,7.11,7.11,0,0,1-1.05-3.76,6.76,6.76,0,0,1,1.73-4.66,8.68,8.68,0,0,1,4.77-2.59c.42-.1,1.47-.32,3.14-.66s3.12-.65,4.31-.94,2.5-.63,3.9-1a7,7,0,0,0-1.06-3.86c-.63-.83-1.93-1.24-3.9-1.24a8.16,8.16,0,0,0-3.82.71,6.25,6.25,0,0,0-2.2,2.12,22.25,22.25,0,0,1-1.29,1.87,2.12,2.12,0,0,1-1.62.45,2.87,2.87,0,0,1-2-.72,2.35,2.35,0,0,1-.81-1.84,5.65,5.65,0,0,1,1.24-3.42,8.94,8.94,0,0,1,3.88-2.73,17.43,17.43,0,0,1,6.57-1.08,18.63,18.63,0,0,1,6.91,1,6.41,6.41,0,0,1,3.55,3.28,14.26,14.26,0,0,1,1,6c0,1.56,0,2.89,0,4s0,2.3,0,3.64a13.6,13.6,0,0,0,.62,3.92,12.25,12.25,0,0,1,.63,2.62,2.43,2.43,0,0,1-1,1.87,3.23,3.23,0,0,1-2.18.84,3,3,0,0,1-2-1A14.55,14.55,0,0,1,766.57,150.53Zm-.44-9.64a33.93,33.93,0,0,1-4.26,1.13c-1.87.4-3.16.7-3.87.88a5.34,5.34,0,0,0-2,1.1,2.83,2.83,0,0,0-1,2.28,3.38,3.38,0,0,0,1.15,2.58,4.21,4.21,0,0,0,3,1.06,7.77,7.77,0,0,0,3.65-.87,5.69,5.69,0,0,0,2.45-2.23,10.1,10.1,0,0,0,.91-5Z" transform="translate(-4.28 0)"></path><path fill="white" d="M778.55,127.78h.74v-4c0-1.07,0-1.91.08-2.52a3.81,3.81,0,0,1,.48-1.58,3.06,3.06,0,0,1,1.12-1.11,3.24,3.24,0,0,1,1.64-.43,3.27,3.27,0,0,1,2.29,1,2.78,2.78,0,0,1,.87,1.55,14.26,14.26,0,0,1,.18,2.6v4.54h2.44a3.09,3.09,0,0,1,2.16.67,2.21,2.21,0,0,1,.75,1.72,1.92,1.92,0,0,1-1.06,1.88,6.86,6.86,0,0,1-3,.54H786v12.25a20.56,20.56,0,0,0,.11,2.41,2.37,2.37,0,0,0,.59,1.36,2,2,0,0,0,1.55.53,8.25,8.25,0,0,0,1.59-.21,7.85,7.85,0,0,1,1.56-.2,2,2,0,0,1,1.45.64,2.19,2.19,0,0,1,.65,1.6,2.68,2.68,0,0,1-1.76,2.47,11.88,11.88,0,0,1-5.05.85,8.72,8.72,0,0,1-4.74-1,4.88,4.88,0,0,1-2.11-2.9,19.45,19.45,0,0,1-.5-5V132.59h-.88a3.15,3.15,0,0,1-2.2-.69,2.24,2.24,0,0,1-.76-1.73,2.16,2.16,0,0,1,.8-1.72A3.45,3.45,0,0,1,778.55,127.78Z" transform="translate(-4.28 0)"></path><path fill="white" d="M814.49,142.38h-13a8.8,8.8,0,0,0,.91,4,6.14,6.14,0,0,0,5.63,3.49,7.88,7.88,0,0,0,2.18-.28,7.2,7.2,0,0,0,1.92-.88,14.1,14.1,0,0,0,1.71-1.28c.52-.45,1.19-1.07,2-1.85a2.19,2.19,0,0,1,1.47-.44,2.39,2.39,0,0,1,1.66.56,2,2,0,0,1,.63,1.58,4.35,4.35,0,0,1-.7,2.12,8.64,8.64,0,0,1-2.14,2.32,12.2,12.2,0,0,1-3.59,1.84,15.43,15.43,0,0,1-5,.73q-6.42,0-10-3.66t-3.57-9.94a16.75,16.75,0,0,1,.88-5.48,12,12,0,0,1,2.57-4.33,10.94,10.94,0,0,1,4.15-2.77,14.72,14.72,0,0,1,5.47-1,13,13,0,0,1,6.7,1.65,10.81,10.81,0,0,1,4.18,4.26,11.19,11.19,0,0,1,1.4,5.32c0,1.68-.49,2.77-1.45,3.26A8.91,8.91,0,0,1,814.49,142.38Zm-13-3.79h12.08a8.1,8.1,0,0,0-1.84-5.11,5.53,5.53,0,0,0-4.21-1.7,5.32,5.32,0,0,0-4.09,1.72A8.51,8.51,0,0,0,801.46,138.59Z" transform="translate(-4.28 0)"></path><path fill="white" d="M230.8,114.12c-1.1-1.87-2.19-3.56-3.11-5.34-2.93-5.66-4.64-11.59-2.78-17.93,1.44-5,4.42-8.7,9.76-9.94a11.78,11.78,0,0,1,9.87,2.35c4.59,3.31,7.16,8,9,13.23a62.39,62.39,0,0,1,2.16,31.12c-.27,1.51-.47,3.3-2.67,3.39a2.4,2.4,0,0,1-2.59-2.18,2.64,2.64,0,0,1,.09-.88,54.49,54.49,0,0,0,1.16-14.69c-.53-8.45-2.12-16.64-7.34-23.65-3-4-8-5.22-11.33-2.67-2.92,2.27-3.89,5.56-3.87,9.14,0,5.86,2.59,10.79,5.9,15.45.73,1,1.34.76,2.15.44l10.69-4a26.52,26.52,0,0,1,.75,7,85,85,0,0,1-1.38,14.24,7.42,7.42,0,0,0,3.46,8,7.57,7.57,0,0,0,8.26-.18A7.4,7.4,0,0,0,260,125.29a3.69,3.69,0,0,1-1.34-3.74,43.12,43.12,0,0,0,.26-8.5,26.9,26.9,0,0,1,5.34,3,27.65,27.65,0,0,1,6.12,4.4,9.91,9.91,0,0,1,2.32,10c-1.55,5.93-3.33,11.79-5,17.69a6.74,6.74,0,0,1-4.58,4.77c-18,6.68-36,13.47-54.07,20.22a5.8,5.8,0,0,1-7.67-2.9c-.08-.19-.16-.38-.22-.57q-6.31-16.64-12.46-33.39a5.59,5.59,0,0,1,2.67-7.43,5.36,5.36,0,0,1,.79-.3c7-2.67,14-5.11,21-7.72C219,118.71,224.79,116.42,230.8,114.12Z" transform="translate(-4.28 0)"></path></svg>