<svg version="1.1" id="Layer_1" xmlns="http://www.w3.org/2000/svg" xmlns:xlink="http://www.w3.org/1999/xlink" x="0px" y="0px"
	 width="100%" viewBox="0 0 688 122" enable-background="new 0 0 688 122" xml:space="preserve">
<path fill="rgba(255, 255, 255, 0)" opacity="1.000000" stroke="none" 
	d="
M91.000000,123.000000 
	C61.013561,123.000000 31.027119,123.000000 1.020339,123.000000 
	C1.020339,82.365280 1.020339,41.730553 1.020339,1.047910 
	C230.333328,1.047910 459.666656,1.047910 689.000000,1.047910 
	C689.000000,23.416222 689.000000,45.739452 688.610352,68.428223 
	C687.788879,66.176735 687.418091,63.547905 686.915222,60.944595 
	C683.759277,44.607033 676.942688,30.519156 661.675110,22.194151 
	C639.368835,10.031151 609.395752,17.277611 594.351257,38.189869 
	C578.770813,59.847130 581.483826,92.255539 601.198730,109.687927 
	C607.479126,115.241173 615.678650,118.624016 623.000000,122.999992 
	C593.979126,123.000000 564.958191,123.000000 535.552979,122.655609 
	C535.818787,121.167938 536.589966,120.076172 537.101135,118.873878 
	C550.962463,86.274033 564.799622,53.663918 578.619019,21.046295 
	C578.906067,20.368866 578.935974,19.582502 579.168152,18.442545 
	C571.920166,18.442545 565.112732,18.623180 558.321594,18.367661 
	C554.835510,18.236492 553.088867,19.216364 551.761169,22.688379 
	C543.386658,44.587906 534.721008,66.376114 526.142517,88.197563 
	C525.503601,89.822823 524.795044,91.420677 523.803955,93.781281 
	C522.930847,91.644890 522.430359,90.441528 521.945801,89.231758 
	C513.042236,67.001358 504.164520,44.760460 495.185699,22.560471 
	C494.572540,21.044401 493.251343,18.704615 492.180725,18.660561 
	C484.150757,18.330139 476.100983,18.480650 467.527344,18.480650 
	C478.167480,43.163380 488.481781,66.955223 498.675415,90.798645 
	C503.241608,101.479134 507.565918,112.263031 512.000000,123.000000 
	C482.979095,123.000000 453.958221,123.000000 424.592285,122.648453 
	C433.590607,119.590065 442.391113,115.898827 449.914459,108.259171 
	C444.271729,103.197716 438.862701,98.345901 433.425568,93.468872 
	C421.579834,101.613327 408.422058,106.817238 393.515656,99.598717 
	C384.936981,95.444405 380.583496,87.895744 378.236267,78.100548 
	C404.959290,78.100548 430.707123,78.100548 457.304138,78.100548 
	C456.454559,71.149971 456.143036,64.656754 454.798126,58.385147 
	C451.578918,43.373333 444.822845,30.473623 430.856506,22.594841 
	C410.169250,10.924601 381.730377,15.998576 366.058502,34.052193 
	C349.559967,53.058098 348.475769,83.186432 363.388580,103.075668 
	C370.768799,112.918701 380.724121,118.856804 392.000000,123.000000 
	C363.312439,123.000000 334.624878,123.000000 305.609344,122.656616 
	C314.727478,119.625282 323.603241,115.925316 330.809540,108.546310 
	C325.465118,102.947853 320.543304,97.792099 315.665649,92.682579 
	C299.506378,103.575493 285.753632,105.825851 274.357178,99.448814 
	C266.199219,94.883926 261.673737,87.789612 259.550171,78.171158 
	C286.124115,78.171158 311.890259,78.171158 338.370178,78.171158 
	C337.840240,72.618652 337.662170,67.484550 336.814209,62.463558 
	C333.954681,45.530952 327.225281,30.826643 311.360779,22.183247 
	C290.614197,10.879959 262.295807,16.343184 247.071854,34.292389 
	C230.779251,53.501553 229.780365,83.114655 244.534958,102.901314 
	C251.881775,112.753731 261.830719,118.682884 273.000000,123.000000 
	C253.979111,123.000000 234.958206,123.000000 215.512482,122.759644 
	C215.087631,122.519295 215.024979,122.034691 215.166077,121.582047 
	C215.307190,115.051582 215.307190,108.973778 215.307190,102.359085 
	C196.558640,102.359085 178.462372,102.359085 159.580673,102.359085 
	C177.023590,81.076759 193.682739,60.364445 210.821594,40.056976 
	C216.524002,33.300304 215.167725,26.282051 213.764236,18.763191 
	C213.324158,18.678755 213.138519,18.740934 212.505402,18.661434 
	C194.651459,18.504757 177.244873,18.449293 159.838516,18.490425 
	C149.906693,18.513895 139.975220,18.694864 129.686951,18.787094 
	C129.197144,19.185110 129.063995,19.600945 128.808640,20.470490 
	C128.686417,26.540777 128.686417,32.157352 128.686417,38.344048 
	C146.581650,38.344048 164.070282,38.344048 182.313980,38.344048 
	C180.756714,40.367615 179.792603,41.686184 178.761612,42.950203 
	C164.874649,59.976181 151.456696,77.419052 136.885040,93.837891 
	C129.467148,102.196129 125.807816,110.750282 127.311737,121.988564 
	C127.134148,122.549095 127.067070,122.774544 127.000000,123.000000 
	C118.979103,123.000000 110.958199,123.000000 102.602608,122.667343 
	C107.584946,120.149490 112.628967,117.613503 115.716125,112.026711 
	C116.681458,109.949089 117.309883,107.975090 118.121979,105.629684 
	C118.566193,102.837387 118.826744,100.416473 119.141846,97.597931 
	C117.255272,93.176323 115.314163,89.152336 113.243912,84.849258 
	C103.335945,75.510147 90.599548,75.324234 81.369621,84.285980 
	C78.031021,87.948288 75.005058,91.435966 71.605209,94.998306 
	C66.538155,95.558167 61.844986,96.043388 56.844059,96.380569 
	C55.176361,95.926796 53.816418,95.621078 52.656464,95.360313 
	C53.662239,93.109238 54.551315,91.119354 55.667957,88.893715 
	C59.069630,83.811890 62.243732,78.965813 65.693817,73.963303 
	C71.727470,68.575058 77.485138,63.343254 83.574203,58.036457 
	C89.198776,55.266678 94.596283,52.754967 99.750977,49.817226 
	C103.638809,47.601490 107.215843,44.840408 111.195549,42.165932 
	C112.860962,38.377068 114.262047,34.744324 115.827927,30.748676 
	C116.625443,24.994461 115.533592,20.054771 112.076340,15.392355 
	C102.067757,2.464322 83.915588,2.551744 75.352623,15.503012 
	C71.935249,20.376471 70.713165,25.467428 71.178444,31.381920 
	C70.297272,34.725754 69.545380,37.695507 68.546829,40.924942 
	C65.863960,45.789211 63.427746,50.393803 60.703217,55.163639 
	C53.871548,60.674873 47.328197,66.020859 40.433472,71.484741 
	C34.948299,73.189774 29.845676,74.888359 24.672703,76.335457 
	C18.414461,78.086143 12.944813,80.804276 9.647218,87.166122 
	C8.455572,90.174599 7.531864,92.991211 6.360232,96.108810 
	C6.439062,98.940689 6.765815,101.471588 7.037894,104.311325 
	C7.378116,105.257103 7.773012,105.894043 8.210979,106.597305 
	C8.254050,106.663628 8.259973,106.821678 8.241726,107.148109 
	C9.439550,109.408775 10.655622,111.343010 12.003521,113.581375 
	C17.997059,119.989265 25.313570,122.818787 33.371475,120.620728 
	C40.085018,118.789383 46.319183,115.200661 53.175751,112.298164 
	C59.669552,112.579445 65.753265,112.952858 72.094933,113.589874 
	C78.568588,116.902321 84.784294,119.951164 91.000000,123.000000 
M37.145401,49.889832 
	C38.404907,49.083336 39.741982,48.375355 40.911442,47.454498 
	C49.018135,41.071091 51.742622,29.831770 47.509003,20.450233 
	C43.376301,11.292315 33.358067,5.746020 23.892744,7.491572 
	C14.756248,9.176484 8.387701,14.297344 5.733521,23.299194 
	C3.156412,32.039654 5.185513,39.935772 11.867861,46.143375 
	C19.027933,52.794773 27.407434,53.917133 37.145401,49.889832 
z"/>
<path fill="#192632" opacity="1.000000" stroke="none" 
	d="
M273.468658,123.000000 
	C261.830719,118.682884 251.881775,112.753731 244.534958,102.901314 
	C229.780365,83.114655 230.779251,53.501553 247.071854,34.292389 
	C262.295807,16.343184 290.614197,10.879959 311.360779,22.183247 
	C327.225281,30.826643 333.954681,45.530952 336.814209,62.463558 
	C337.662170,67.484550 337.840240,72.618652 338.370178,78.171158 
	C311.890259,78.171158 286.124115,78.171158 259.550171,78.171158 
	C261.673737,87.789612 266.199219,94.883926 274.357178,99.448814 
	C285.753632,105.825851 299.506378,103.575493 315.665649,92.682579 
	C320.543304,97.792099 325.465118,102.947853 330.809540,108.546310 
	C323.603241,115.925316 314.727478,119.625282 305.140686,122.656616 
	C294.645782,123.000000 284.291534,123.000000 273.468658,123.000000 
M282.499939,60.624611 
	C292.930511,60.624611 303.361084,60.624611 313.814270,60.624611 
	C312.985535,47.324615 301.457825,37.635105 287.334534,37.913078 
	C273.745667,38.180534 260.689636,49.138393 260.573547,60.624550 
	C267.548920,60.624550 274.524475,60.624550 282.499939,60.624611 
z"/>
<path fill="#192632" opacity="1.000000" stroke="none" 
	d="
M392.468658,123.000000 
	C380.724121,118.856804 370.768799,112.918701 363.388580,103.075668 
	C348.475769,83.186432 349.559967,53.058098 366.058502,34.052193 
	C381.730377,15.998576 410.169250,10.924601 430.856506,22.594841 
	C444.822845,30.473623 451.578918,43.373333 454.798126,58.385147 
	C456.143036,64.656754 456.454559,71.149971 457.304138,78.100548 
	C430.707123,78.100548 404.959290,78.100548 378.236267,78.100548 
	C380.583496,87.895744 384.936981,95.444405 393.515656,99.598717 
	C408.422058,106.817238 421.579834,101.613327 433.425568,93.468872 
	C438.862701,98.345901 444.271729,103.197716 449.914459,108.259171 
	C442.391113,115.898827 433.590607,119.590065 424.123596,122.648453 
	C413.645782,123.000000 403.291534,123.000000 392.468658,123.000000 
M399.500153,60.622505 
	C410.589020,60.622505 421.677856,60.622505 432.833130,60.622505 
	C431.036316,46.780830 420.334381,37.778320 406.457947,37.910709 
	C392.859558,38.040443 380.391541,48.189259 379.125885,60.622444 
	C385.613281,60.622444 392.056885,60.622444 399.500153,60.622505 
z"/>
<path fill="#192632" opacity="1.000000" stroke="none" 
	d="
M623.468628,122.999992 
	C615.678650,118.624016 607.479126,115.241173 601.198730,109.687927 
	C581.483826,92.255539 578.770813,59.847130 594.351257,38.189869 
	C609.395752,17.277611 639.368835,10.031151 661.675110,22.194151 
	C676.942688,30.519156 683.759277,44.607033 686.915222,60.944595 
	C687.418091,63.547905 687.788879,66.176735 688.610352,68.896881 
	C689.000000,69.000000 689.000000,69.500000 688.602295,69.900452 
	C688.165039,72.890396 688.125549,75.479889 687.629089,78.206970 
	C661.523743,78.344559 635.875366,78.344559 610.085083,78.344559 
	C613.398987,98.169884 635.989014,114.100449 666.018433,92.772369 
	C670.976868,97.966537 675.972900,103.200081 681.352722,108.835640 
	C678.785095,110.835083 676.791260,112.964043 674.343933,114.181213 
	C668.002502,117.335098 661.461426,120.087387 655.000000,123.000000 
	C644.645752,123.000000 634.291565,123.000000 623.468628,122.999992 
M641.499756,60.622513 
	C649.096680,60.622513 656.693542,60.622513 664.366516,60.622513 
	C662.176758,46.288414 651.849670,37.795635 637.422302,37.951759 
	C624.382629,38.092865 612.190247,48.215546 610.578552,60.622452 
	C620.585938,60.622452 630.542847,60.622452 641.499756,60.622513 
z"/>
<path fill="#1C2834" opacity="1.000000" stroke="none" 
	d="
M512.468628,123.000000 
	C507.565918,112.263031 503.241608,101.479134 498.675415,90.798645 
	C488.481781,66.955223 478.167480,43.163380 467.527344,18.480650 
	C476.100983,18.480650 484.150757,18.330139 492.180725,18.660561 
	C493.251343,18.704615 494.572540,21.044401 495.185699,22.560471 
	C504.164520,44.760460 513.042236,67.001358 521.945801,89.231758 
	C522.430359,90.441528 522.930847,91.644890 523.803955,93.781281 
	C524.795044,91.420677 525.503601,89.822823 526.142517,88.197563 
	C534.721008,66.376114 543.386658,44.587906 551.761169,22.688379 
	C553.088867,19.216364 554.835510,18.236492 558.321594,18.367661 
	C565.112732,18.623180 571.920166,18.442545 579.168152,18.442545 
	C578.935974,19.582502 578.906067,20.368866 578.619019,21.046295 
	C564.799622,53.663918 550.962463,86.274033 537.101135,118.873878 
	C536.589966,120.076172 535.818787,121.167938 535.084351,122.655609 
	C527.645752,123.000000 520.291504,123.000000 512.468628,123.000000 
z"/>
<path fill="rgba(255, 255, 255, 0)" opacity="1.000000" stroke="none" 
	d="
M655.468628,123.000000 
	C661.461426,120.087387 668.002502,117.335098 674.343933,114.181213 
	C676.791260,112.964043 678.785095,110.835083 681.352722,108.835640 
	C675.972900,103.200081 670.976868,97.966537 666.018433,92.772369 
	C635.989014,114.100449 613.398987,98.169884 610.085083,78.344559 
	C635.875366,78.344559 661.523743,78.344559 687.864624,78.282845 
	C688.557190,78.221130 689.000000,78.000000 689.000000,78.000000 
	C689.000000,92.916435 689.000000,107.832878 689.000000,123.000000 
	C677.980347,123.000000 666.958862,123.000000 655.468628,123.000000 
z"/>
<path fill="#0186B2" opacity="1.000000" stroke="none" 
	d="
M91.458069,123.000000 
	C84.784294,119.951164 78.568588,116.902321 72.365723,113.243454 
	C73.324989,112.423424 74.271439,112.030777 75.217842,112.030914 
	C88.604973,112.032806 101.992096,112.088020 115.379219,112.130325 
	C112.628967,117.613503 107.584946,120.149490 102.133957,122.667343 
	C98.638710,123.000000 95.277428,123.000000 91.458069,123.000000 
z"/>
<path fill="#A2A7AC" opacity="1.000000" stroke="none" 
	d="
M215.024979,122.034691 
	C215.024979,122.034691 215.087631,122.519295 215.043823,122.759644 
	C185.979111,123.000000 156.958206,123.000000 127.468658,123.000000 
	C127.067070,122.774544 127.134148,122.549095 127.740440,122.100395 
	C157.194763,121.929665 186.109879,121.982178 215.024979,122.034691 
z"/>
<path fill="#9CA1A6" opacity="1.000000" stroke="none" 
	d="
M689.000000,77.555832 
	C689.000000,78.000000 688.557190,78.221130 688.321655,78.145256 
	C688.125549,75.479889 688.165039,72.890396 688.602295,70.150452 
	C689.000000,72.370560 689.000000,74.741112 689.000000,77.555832 
z"/>
<path fill="#182531" opacity="1.000000" stroke="none" 
	d="
M215.166077,121.582047 
	C186.109879,121.982178 157.194763,121.929665 127.850952,121.765320 
	C125.807816,110.750282 129.467148,102.196129 136.885040,93.837891 
	C151.456696,77.419052 164.874649,59.976181 178.761612,42.950203 
	C179.792603,41.686184 180.756714,40.367615 182.313980,38.344048 
	C164.070282,38.344048 146.581650,38.344048 128.686417,38.344048 
	C128.686417,32.157352 128.686417,26.540777 129.057190,20.333818 
	C129.633163,19.430595 129.838379,19.117754 130.043594,18.804914 
	C139.975220,18.694864 149.906693,18.513895 159.838516,18.490425 
	C177.244873,18.449293 194.651459,18.504757 212.594360,18.849415 
	C213.426758,19.089323 213.722717,18.999565 214.018677,18.909809 
	C215.167725,26.282051 216.524002,33.300304 210.821594,40.056976 
	C193.682739,60.364445 177.023590,81.076759 159.580673,102.359085 
	C178.462372,102.359085 196.558640,102.359085 215.307190,102.359085 
	C215.307190,108.973778 215.307190,115.051582 215.166077,121.582047 
z"/>
<path fill="#1A2733" opacity="1.000000" stroke="none" 
	d="
M36.788963,50.038517 
	C27.407434,53.917133 19.027933,52.794773 11.867861,46.143375 
	C5.185513,39.935772 3.156412,32.039654 5.733521,23.299194 
	C8.387701,14.297344 14.756248,9.176484 23.892744,7.491572 
	C33.358067,5.746020 43.376301,11.292315 47.509003,20.450233 
	C51.742622,29.831770 49.018135,41.071091 40.911442,47.454498 
	C39.741982,48.375355 38.404907,49.083336 36.788963,50.038517 
z"/>
<path fill="#078CB2" opacity="1.000000" stroke="none" 
	d="
M57.151814,96.528610 
	C61.844986,96.043388 66.538155,95.558167 71.612442,95.425812 
	C71.702446,99.062416 73.880798,99.023033 76.198616,99.018097 
	C82.680130,99.004272 89.217163,98.563606 95.629402,99.251060 
	C103.587784,100.104271 111.396446,100.950935 119.087296,97.995567 
	C118.826744,100.416473 118.566193,102.837387 117.703117,105.640396 
	C114.818550,106.348312 112.537079,106.953239 110.254387,106.957832 
	C79.165276,107.020454 48.076008,107.004684 16.986780,106.992195 
	C14.077822,106.991028 11.168907,106.881104 8.259973,106.821686 
	C8.259973,106.821678 8.254050,106.663628 8.434223,106.287659 
	C8.107121,105.275291 7.599843,104.638885 7.092567,104.002480 
	C6.765815,101.471588 6.439062,98.940689 6.699981,96.335182 
	C8.817729,97.173492 10.334743,98.852104 11.879946,98.878456 
	C24.472952,99.093277 37.073784,99.131462 49.665730,98.887444 
	C52.175381,98.838806 54.657173,97.352158 57.151814,96.528610 
z"/>
<path fill="#1397B3" opacity="1.000000" stroke="none" 
	d="
M9.915156,86.974258 
	C12.944813,80.804276 18.414461,78.086143 24.672703,76.335457 
	C29.845676,74.888359 34.948299,73.189774 40.602032,71.897026 
	C42.893974,72.794144 44.648205,73.847481 46.441200,73.918221 
	C52.759560,74.167503 59.091225,74.079681 65.417839,74.119736 
	C62.243732,78.965813 59.069630,83.811890 55.167595,88.857300 
	C43.557468,89.037651 32.670677,89.193626 21.795506,88.907761 
	C17.821194,88.803284 13.874468,87.649399 9.915156,86.974258 
z"/>
<path fill="#2EB4B3" opacity="1.000000" stroke="none" 
	d="
M112.150795,15.715027 
	C115.533592,20.054771 116.625443,24.994461 115.340866,30.709326 
	C112.582718,31.354658 110.470764,31.985834 108.371086,31.947319 
	C96.015053,31.720671 83.661873,31.337967 71.307732,31.007839 
	C70.713165,25.467428 71.935249,20.376471 75.533661,15.905085 
	C78.317032,17.031355 80.609207,18.738188 82.983154,18.860723 
	C90.220360,19.234295 97.505470,19.274569 104.736626,18.847176 
	C107.260910,18.697979 109.682373,16.809311 112.150795,15.715027 
z"/>
<path fill="#0489B2" opacity="1.000000" stroke="none" 
	d="
M8.241726,107.148117 
	C11.168907,106.881104 14.077822,106.991028 16.986780,106.992195 
	C48.076008,107.004684 79.165276,107.020454 110.254387,106.957832 
	C112.537079,106.953239 114.818550,106.348312 117.519455,106.011787 
	C117.309883,107.975090 116.681458,109.949089 115.716125,112.026711 
	C101.992096,112.088020 88.604973,112.032806 75.217842,112.030914 
	C74.271439,112.030777 73.324989,112.423424 72.107773,112.979843 
	C65.753265,112.952858 59.669552,112.579445 52.652943,112.171265 
	C39.779861,112.091156 27.839497,112.004944 15.899737,112.057251 
	C14.555300,112.063133 13.214291,112.851654 11.871692,113.277245 
	C10.655622,111.343010 9.439550,109.408775 8.241726,107.148117 
z"/>
<path fill="#24A9B3" opacity="1.000000" stroke="none" 
	d="
M60.991531,54.998390 
	C63.427746,50.393803 65.863960,45.789211 68.826187,41.271690 
	C71.293831,41.572510 73.233292,41.947506 75.177437,41.973618 
	C87.094780,42.133648 99.013176,42.214703 110.931221,42.322056 
	C107.215843,44.840408 103.638809,47.601490 99.750977,49.817226 
	C94.596283,52.754967 89.198776,55.266678 83.171684,57.865517 
	C80.358131,57.512890 78.277000,57.267754 76.199181,56.997257 
	C71.129150,56.337219 66.060646,55.665440 60.991531,54.998390 
z"/>
<path fill="#0C91B3" opacity="1.000000" stroke="none" 
	d="
M119.141838,97.597931 
	C111.396446,100.950935 103.587784,100.104271 95.629402,99.251060 
	C89.217163,98.563606 82.680130,99.004272 76.198616,99.018097 
	C73.880798,99.023033 71.702446,99.062416 71.986328,95.351166 
	C75.005058,91.435966 78.031021,87.948288 81.449997,84.763855 
	C83.049332,86.042740 84.228783,87.821671 85.466347,87.863060 
	C93.228241,88.122673 101.008751,88.150253 108.768860,87.865852 
	C110.334938,87.808456 111.839912,86.084152 113.373055,85.128357 
	C115.314163,89.152336 117.255272,93.176323 119.141838,97.597931 
z"/>
<path fill="#0C91B3" opacity="1.000000" stroke="none" 
	d="
M9.647218,87.166122 
	C13.874468,87.649399 17.821194,88.803284 21.795506,88.907761 
	C32.670677,89.193626 43.557468,89.037651 54.940025,89.093048 
	C54.551315,91.119354 53.662239,93.109238 52.656464,95.360313 
	C53.816418,95.621078 55.176361,95.926796 56.844059,96.380569 
	C54.657173,97.352158 52.175381,98.838806 49.665730,98.887444 
	C37.073784,99.131462 24.472952,99.093277 11.879946,98.878456 
	C10.334743,98.852104 8.817729,97.173492 6.947905,96.034195 
	C7.531864,92.991211 8.455572,90.174599 9.647218,87.166122 
z"/>
<path fill="#28AEB2" opacity="1.000000" stroke="none" 
	d="
M111.195549,42.165932 
	C99.013176,42.214703 87.094780,42.133648 75.177437,41.973618 
	C73.233292,41.947506 71.293831,41.572510 69.072845,41.012016 
	C69.545380,37.695507 70.297272,34.725754 71.178444,31.381920 
	C83.661873,31.337967 96.015053,31.720671 108.371086,31.947319 
	C110.470764,31.985834 112.582718,31.354658 115.176064,31.072226 
	C114.262047,34.744324 112.860962,38.377068 111.195549,42.165932 
z"/>
<path fill="#1B9FB3" opacity="1.000000" stroke="none" 
	d="
M60.703217,55.163639 
	C66.060646,55.665440 71.129150,56.337219 76.199181,56.997257 
	C78.277000,57.267754 80.358131,57.512890 82.840271,57.940506 
	C77.485138,63.343254 71.727470,68.575058 65.693817,73.963295 
	C59.091225,74.079681 52.759560,74.167503 46.441200,73.918221 
	C44.648205,73.847481 42.893974,72.794144 40.953407,71.779129 
	C47.328197,66.020859 53.871548,60.674873 60.703217,55.163639 
z"/>
<path fill="#35BBB3" opacity="1.000000" stroke="none" 
	d="
M112.076340,15.392354 
	C109.682373,16.809311 107.260910,18.697979 104.736626,18.847176 
	C97.505470,19.274569 90.220360,19.234295 82.983154,18.860723 
	C80.609207,18.738188 78.317032,17.031355 75.806427,15.646946 
	C83.915588,2.551744 102.067757,2.464322 112.076340,15.392354 
z"/>
<path fill="#1497B3" opacity="1.000000" stroke="none" 
	d="
M113.243912,84.849258 
	C111.839912,86.084152 110.334938,87.808456 108.768860,87.865852 
	C101.008751,88.150253 93.228241,88.122673 85.466347,87.863060 
	C84.228783,87.821671 83.049332,86.042740 81.762634,84.589218 
	C90.599548,75.324234 103.335945,75.510147 113.243912,84.849258 
z"/>
<path fill="#0688B3" opacity="1.000000" stroke="none" 
	d="
M12.003521,113.581375 
	C13.214291,112.851654 14.555300,112.063133 15.899737,112.057251 
	C27.839497,112.004944 39.779861,112.091156 52.242859,112.263397 
	C46.319183,115.200661 40.085018,118.789383 33.371475,120.620728 
	C25.313570,122.818787 17.997059,119.989265 12.003521,113.581375 
z"/>
<path fill="#0489B2" opacity="1.000000" stroke="none" 
	d="
M7.037892,104.311325 
	C7.599843,104.638885 8.107121,105.275291 8.391152,106.221344 
	C7.773012,105.894043 7.378116,105.257103 7.037892,104.311325 
z"/>
<path fill="#0A1724" opacity="1.000000" stroke="none" 
	d="
M213.764236,18.763191 
	C213.722717,18.999565 213.426758,19.089323 213.041840,18.991096 
	C213.138519,18.740934 213.324158,18.678755 213.764236,18.763191 
z"/>
<path fill="#0A1724" opacity="1.000000" stroke="none" 
	d="
M129.686951,18.787094 
	C129.838379,19.117754 129.633163,19.430595 129.179413,19.880108 
	C129.063995,19.600945 129.197144,19.185110 129.686951,18.787094 
z"/>
<path fill="rgba(255, 255, 255, 0)" opacity="1.000000" stroke="none" 
	d="
M282.000000,60.624580 
	C274.524475,60.624550 267.548920,60.624550 260.573547,60.624550 
	C260.689636,49.138393 273.745667,38.180534 287.334534,37.913078 
	C301.457825,37.635105 312.985535,47.324615 313.814270,60.624611 
	C303.361084,60.624611 292.930511,60.624611 282.000000,60.624580 
z"/>
<path fill="rgba(255, 255, 255, 0)" opacity="1.000000" stroke="none" 
	d="
M399.000305,60.622475 
	C392.056885,60.622444 385.613281,60.622444 379.125885,60.622444 
	C380.391541,48.189259 392.859558,38.040443 406.457947,37.910709 
	C420.334381,37.778320 431.036316,46.780830 432.833130,60.622505 
	C421.677856,60.622505 410.589020,60.622505 399.000305,60.622475 
z"/>
<path fill="rgba(255, 255, 255, 0)" opacity="1.000000" stroke="none" 
	d="
M640.999756,60.622482 
	C630.542847,60.622452 620.585938,60.622452 610.578552,60.622452 
	C612.190247,48.215546 624.382629,38.092865 637.422302,37.951759 
	C651.849670,37.795635 662.176758,46.288414 664.366516,60.622513 
	C656.693542,60.622513 649.096680,60.622513 640.999756,60.622482 
z"/>
</svg>